<?xml version="1.0" encoding="UTF-8"?>
<svg width="120px" height="120px" viewBox="0 0 120 120" version="1.1" xmlns="http://www.w3.org/2000/svg" xmlns:xlink="http://www.w3.org/1999/xlink">
    <!-- Generator: Sketch 44 (41411) - http://www.bohemiancoding.com/sketch -->
    <title>Logo/Barksy - Mark</title>
    <desc>Created with Sketch.</desc>
    <defs></defs>
    <g id="Symbols" stroke="none" stroke-width="1" fill="none" fill-rule="evenodd">
        <g id="Logo/Barksy---Mark">
            <g id="Group-2" transform="translate(10.000000, 22.000000)">
                <circle id="Oval-2" fill="#24BBA2" cx="22" cy="15" r="5"></circle>
                <circle id="Oval-2" fill="#24BBA2" cx="7" cy="34" r="4"></circle>
                <circle id="Oval-2" fill="#24BBA2" cx="12" cy="23" r="3"></circle>
                <circle id="Oval-2" fill="#24BBA2" cx="80.5" cy="16.5" r="4.5"></circle>
                <circle id="Oval-2" fill="#24BBA2" cx="87.5" cy="37.5" r="7.5"></circle>
                <circle id="Oval-2" fill="#24BBA2" cx="83" cy="26" r="2"></circle>
                <path d="M99.8155963,34.0251795 L99.8167363,34.0263789 C101.159693,41.9092062 95.0039474,46.9533362 85.2187699,51.9428951 C79.8897822,65.1818873 67.1948115,74.2548837 52.6988449,75.2855382 C51.8551469,75.7462243 50.948869,76 49.9996512,76 C49.0543533,76 48.1559054,75.7423164 47.3121574,75.2894361 C32.8741907,74.3329434 20.4213194,65.4226599 14.8002323,51.9497915 C5.00355693,46.9564346 -1.16052885,41.9117049 0.183267851,34.0252794 C1.36326433,27.07196 12.9175367,13.3406284 15.2222314,10.6506523 L15.398011,10.4671594 C18.5188038,7.36330239 22.5304945,7.67563706 25.4679877,8.73367701 C32.284972,3.09606117 40.8042524,0 49.651932,0 C58.6199113,0 67.1982915,3.1585281 74.0498757,8.92497575 C77.0110689,7.72641019 81.3118589,7.19159328 84.6048514,10.4710574 L84.7806309,10.6545502 C87.0816256,13.3371303 98.635899,27.0718601 99.8155963,34.0251795 Z M53.9160978,69.0614044 L53.9160875,69.0614044 C54.4700986,67.7099144 54.8635115,66.0505186 55,64.1752406 C53.494526,63.8713268 52.1497838,63.3195119 51.0256883,62.6637583 C50.6603727,62.4438329 50.3151383,62.2199152 50.0020091,62 C49.6808537,62.2199255 49.3436456,62.4438431 48.9743117,62.6637583 C47.8502162,63.3195529 46.5053713,63.8713473 45,64.1752406 C45.1324599,66.0546131 45.5419254,67.7219932 46.1039526,69.0734831 C47.103594,71.5285414 48.5929331,73 50.0020091,73 C51.4110852,73 52.9164975,71.5204548 53.9160978,69.0614044 Z M35.4999973,27 C37.9920146,27 40.0037702,29.0176149 39.9999947,31.4962277 C39.9999947,33.9823851 37.9882391,36 35.4999973,36 C33.0193065,36 31,33.9823851 31,31.4962277 C31,29.0176149 33.0193065,27 35.4999973,27 Z M64.5018854,27 C66.9832304,27 69,29.0176149 69,31.4962277 C69,33.9823851 66.9832304,36 64.5018854,36 C62.0167696,36 60,33.9823851 60,31.4962277 C60,29.0176149 62.0167696,27 64.5018854,27 Z M84.9254366,44.2747193 L84.9256562,44.2740255 C93.623522,39.2187314 93.1517842,36.4297874 92.8944773,34.8428999 C92.2477416,31.0096731 84.6726508,20.73387 79.4367869,14.5786852 C77.8539813,13.1332007 74.902681,15.0146896 74.8831891,15.0343283 L73.2184437,16.9669303 L70.7584529,14.7004796 C64.871961,9.07955327 57.1993608,6 49.1486997,6 C41.4178135,6 33.9632871,8.87924405 28.1776978,14.1113171 L26.6416009,16.24815 L24.1348016,15.0422723 C24.1075549,15.0304871 21.1563245,13.1254276 19.5617419,14.5826974 C14.3293711,20.7458262 6.75040991,31.0171042 6.11103987,34.8469121 C5.84206571,36.4298779 5.37038783,39.2147996 14.0642894,44.2780377 C14.5749909,40.2406805 15.728935,34.3562953 18.3215664,28.7510558 L24.1421872,31.4928386 C20.7932443,38.7248867 20.1928581,46.62785 20.099291,48.8549829 C23.9737165,58.6356441 32.0832625,65.6196184 41.8727242,68 C41.5374397,66.7745138 41.3074194,65.4349961 41.2060575,64.0366526 C38.995579,63.801048 36.6213206,62.8700927 34.2587394,60.807873 L36.5160265,58.1800211 C41.6348193,62.6697031 46.2507951,59.8808596 47.7790075,58.6985123 L47.7790075,51.9973038 C44.9407562,51.1763577 42.8589262,48.5210538 42.8589262,46.725913 C42.8589262,44.5616281 45.8297183,42.821492 49.494354,42.821492 C53.1589897,42.821492 56.1297818,44.5616281 56.1297818,46.725913 C56.1297818,48.5249755 54.0400672,51.1802794 51.2097005,51.9973038 L51.2097005,58.6985123 C52.7887136,59.9240789 57.3500961,62.6737052 62.4806659,58.1800211 L64.7301682,60.807873 C62.3754716,62.8699922 59.9934284,63.7970458 57.7789577,64.0366526 C57.6814882,65.4272532 57.4631651,66.7430395 57.1239882,67.972548 C67.0226364,65.5219778 75.2608308,58.478876 78.890435,48.8788149 C78.7890332,46.6866757 78.1887069,38.693513 74.8475388,31.4895203 L80.6681596,28.7477374 C83.268476,34.3525747 84.4147151,40.2367588 84.9254366,44.2747193 Z" id="Combined-Shape" fill="#000000"></path>
            </g>
        </g>
    </g>
</svg>