<?xml version="1.0" encoding="UTF-8"?>
<svg width="120px" height="120px" viewBox="0 0 120 120" version="1.1" xmlns="http://www.w3.org/2000/svg" xmlns:xlink="http://www.w3.org/1999/xlink">
    <!-- Generator: Sketch 44 (41411) - http://www.bohemiancoding.com/sketch -->
    <title>Logo/Barksy</title>
    <desc>Created with Sketch.</desc>
    <defs></defs>
    <g id="Symbols" stroke="none" stroke-width="1" fill="none" fill-rule="evenodd">
        <g id="Logo/Barksy">
            <g id="Group-2" transform="translate(10.000000, 6.000000)">
                <circle id="Oval-2" fill="#24BBA2" cx="22" cy="15" r="5"></circle>
                <circle id="Oval-2" fill="#24BBA2" cx="7" cy="34" r="4"></circle>
                <circle id="Oval-2" fill="#24BBA2" cx="12" cy="23" r="3"></circle>
                <circle id="Oval-2" fill="#24BBA2" cx="80.5" cy="16.5" r="4.5"></circle>
                <circle id="Oval-2" fill="#24BBA2" cx="87.5" cy="37.5" r="7.5"></circle>
                <circle id="Oval-2" fill="#24BBA2" cx="83" cy="26" r="2"></circle>
                <path d="M99.8155963,34.0251795 L99.8167363,34.0263789 C101.159693,41.9092062 95.0039474,46.9533362 85.2187699,51.9428951 C79.8897822,65.1818873 67.1948115,74.2548837 52.6988449,75.2855382 C51.8551469,75.7462243 50.948869,76 49.9996512,76 C49.0543533,76 48.1559054,75.7423164 47.3121574,75.2894361 C32.8741907,74.3329434 20.4213194,65.4226599 14.8002323,51.9497915 C5.00355693,46.9564346 -1.16052885,41.9117049 0.183267851,34.0252794 C1.36326433,27.07196 12.9175367,13.3406284 15.2222314,10.6506523 L15.398011,10.4671594 C18.5188038,7.36330239 22.5304945,7.67563706 25.4679877,8.73367701 C32.284972,3.09606117 40.8042524,0 49.651932,0 C58.6199113,0 67.1982915,3.1585281 74.0498757,8.92497575 C77.0110689,7.72641019 81.3118589,7.19159328 84.6048514,10.4710574 L84.7806309,10.6545502 C87.0816256,13.3371303 98.635899,27.0718601 99.8155963,34.0251795 Z M53.9160978,69.0614044 L53.9160875,69.0614044 C54.4700986,67.7099144 54.8635115,66.0505186 55,64.1752406 C53.494526,63.8713268 52.1497838,63.3195119 51.0256883,62.6637583 C50.6603727,62.4438329 50.3151383,62.2199152 50.0020091,62 C49.6808537,62.2199255 49.3436456,62.4438431 48.9743117,62.6637583 C47.8502162,63.3195529 46.5053713,63.8713473 45,64.1752406 C45.1324599,66.0546131 45.5419254,67.7219932 46.1039526,69.0734831 C47.103594,71.5285414 48.5929331,73 50.0020091,73 C51.4110852,73 52.9164975,71.5204548 53.9160978,69.0614044 Z M35.4999973,27 C37.9920146,27 40.0037702,29.0176149 39.9999947,31.4962277 C39.9999947,33.9823851 37.9882391,36 35.4999973,36 C33.0193065,36 31,33.9823851 31,31.4962277 C31,29.0176149 33.0193065,27 35.4999973,27 Z M64.5018854,27 C66.9832304,27 69,29.0176149 69,31.4962277 C69,33.9823851 66.9832304,36 64.5018854,36 C62.0167696,36 60,33.9823851 60,31.4962277 C60,29.0176149 62.0167696,27 64.5018854,27 Z M84.9254366,44.2747193 L84.9256562,44.2740255 C93.623522,39.2187314 93.1517842,36.4297874 92.8944773,34.8428999 C92.2477416,31.0096731 84.6726508,20.73387 79.4367869,14.5786852 C77.8539813,13.1332007 74.902681,15.0146896 74.8831891,15.0343283 L73.2184437,16.9669303 L70.7584529,14.7004796 C64.871961,9.07955327 57.1993608,6 49.1486997,6 C41.4178135,6 33.9632871,8.87924405 28.1776978,14.1113171 L26.6416009,16.24815 L24.1348016,15.0422723 C24.1075549,15.0304871 21.1563245,13.1254276 19.5617419,14.5826974 C14.3293711,20.7458262 6.75040991,31.0171042 6.11103987,34.8469121 C5.84206571,36.4298779 5.37038783,39.2147996 14.0642894,44.2780377 C14.5749909,40.2406805 15.728935,34.3562953 18.3215664,28.7510558 L24.1421872,31.4928386 C20.7932443,38.7248867 20.1928581,46.62785 20.099291,48.8549829 C23.9737165,58.6356441 32.0832625,65.6196184 41.8727242,68 C41.5374397,66.7745138 41.3074194,65.4349961 41.2060575,64.0366526 C38.995579,63.801048 36.6213206,62.8700927 34.2587394,60.807873 L36.5160265,58.1800211 C41.6348193,62.6697031 46.2507951,59.8808596 47.7790075,58.6985123 L47.7790075,51.9973038 C44.9407562,51.1763577 42.8589262,48.5210538 42.8589262,46.725913 C42.8589262,44.5616281 45.8297183,42.821492 49.494354,42.821492 C53.1589897,42.821492 56.1297818,44.5616281 56.1297818,46.725913 C56.1297818,48.5249755 54.0400672,51.1802794 51.2097005,51.9973038 L51.2097005,58.6985123 C52.7887136,59.9240789 57.3500961,62.6737052 62.4806659,58.1800211 L64.7301682,60.807873 C62.3754716,62.8699922 59.9934284,63.7970458 57.7789577,64.0366526 C57.6814882,65.4272532 57.4631651,66.7430395 57.1239882,67.972548 C67.0226364,65.5219778 75.2608308,58.478876 78.890435,48.8788149 C78.7890332,46.6866757 78.1887069,38.693513 74.8475388,31.4895203 L80.6681596,28.7477374 C83.268476,34.3525747 84.4147151,40.2367588 84.9254366,44.2747193 Z" id="Combined-Shape" fill="#000000"></path>
            </g>
            <path d="M25.7439996,104.928 C25.7439996,105.536003 25.6440006,106.099997 25.4439996,106.62 C25.2439986,107.140003 24.9480016,107.595998 24.5559996,107.988 C24.1639977,108.380002 23.6800025,108.687999 23.1039996,108.912 C22.5279967,109.136001 21.8560035,109.248 21.0879996,109.248 L14.3199996,109.248 C13.791997,109.248 13.3400015,109.060002 12.9639996,108.684 C12.5879977,108.307998 12.3999996,107.856003 12.3999996,107.328 L12.3999996,95.16 C12.3999996,94.6319974 12.5879977,94.1800019 12.9639996,93.804 C13.3400015,93.4279981 13.791997,93.24 14.3199996,93.24 L20.8239996,93.24 C21.5920035,93.24 22.2639967,93.3519989 22.8399996,93.576 C23.4160025,93.8000011 23.8959977,94.0999981 24.2799996,94.476 C24.6640015,94.8520019 24.9519987,95.2879975 25.1439996,95.784 C25.3360006,96.2800025 25.4319996,96.7919974 25.4319996,97.32 C25.4319996,97.8320026 25.3600003,98.2959979 25.2159996,98.712 C25.0719989,99.1280021 24.8720009,99.4919984 24.6159996,99.804 C24.3599983,100.116002 24.0680013,100.371999 23.7399996,100.572 C23.411998,100.772001 23.0560015,100.912 22.6719996,100.992 C23.1040018,101.056 23.5039978,101.203999 23.8719996,101.436 C24.2400015,101.668001 24.5639982,101.955998 24.8439996,102.3 C25.124001,102.644002 25.3439988,103.043998 25.5039996,103.5 C25.6640004,103.956002 25.7439996,104.431998 25.7439996,104.928 Z M21.9519996,97.92 C21.9519996,97.4079974 21.7840013,96.9880016 21.4479996,96.66 C21.1119979,96.3319984 20.6560025,96.168 20.0799996,96.168 L15.8079996,96.168 L15.8079996,99.648 L20.0799996,99.648 C20.6560025,99.648 21.1119979,99.4880016 21.4479996,99.168 C21.7840013,98.8479984 21.9519996,98.4320026 21.9519996,97.92 Z M22.2639996,104.448 C22.2639996,104.191999 22.2200001,103.952001 22.1319996,103.728 C22.0439992,103.503999 21.9120005,103.308001 21.7359996,103.14 C21.5599987,102.971999 21.3440009,102.836001 21.0879996,102.732 C20.8319983,102.627999 20.5360013,102.576 20.1999996,102.576 L15.8079996,102.576 L15.8079996,106.296 L20.1999996,106.296 C20.8560029,106.296 21.3639978,106.132002 21.7239996,105.804 C22.0840014,105.475998 22.2639996,105.024003 22.2639996,104.448 Z M43.4719996,107.568 C43.4719996,108.016002 43.3080013,108.431998 42.9799996,108.816 C42.651998,109.200002 42.2080024,109.392 41.6479996,109.392 C41.2799978,109.392 40.9440011,109.292001 40.6399996,109.092 C40.3359981,108.891999 40.1200003,108.616002 39.9919996,108.264 L39.3679996,106.536 L32.5039996,106.536 L31.8559996,108.264 C31.727999,108.616002 31.5080012,108.891999 31.1959996,109.092 C30.8839981,109.292001 30.5440015,109.392 30.1759996,109.392 C29.6319969,109.392 29.1960013,109.204002 28.8679996,108.828 C28.539998,108.451998 28.3759996,108.032002 28.3759996,107.568 C28.3759996,107.311999 28.4159992,107.096001 28.4959996,106.92 L33.1759996,94.896 C33.3840007,94.3519973 33.7319972,93.9160016 34.2199996,93.588 C34.7080021,93.2599984 35.2319968,93.096 35.7919996,93.096 C36.4000027,93.0479998 36.9799969,93.1879984 37.5319996,93.516 C38.0840024,93.8440016 38.4719985,94.303997 38.6959996,94.896 L43.3519996,106.92 C43.432,107.160001 43.4719996,107.375999 43.4719996,107.568 Z M38.4319996,103.536 L35.9359996,96.648 L33.4399996,103.536 L38.4319996,103.536 Z M59.5919996,98.4 C59.5919996,99.1040035 59.4920006,99.7279973 59.2919996,100.272 C59.0919986,100.816003 58.8240013,101.283998 58.4879996,101.676 C58.1519979,102.068002 57.7760017,102.387999 57.3599996,102.636 C56.9439975,102.884001 56.5200018,103.056 56.0879996,103.152 L58.2959996,106.896 C58.4400003,107.168001 58.5119996,107.439999 58.5119996,107.712 C58.5119996,108.128002 58.3600011,108.511998 58.0559996,108.864 C57.7519981,109.216002 57.3440022,109.392 56.8319996,109.392 C56.5279981,109.392 56.2480009,109.316001 55.9919996,109.164 C55.7359983,109.011999 55.5280004,108.800001 55.3679996,108.528 L52.6319996,103.56 L50.1359996,103.56 L50.1359996,107.712 C50.1359996,108.176002 49.9680013,108.571998 49.6319996,108.9 C49.2959979,109.228002 48.888002,109.392 48.4079996,109.392 C47.9439973,109.392 47.5480013,109.228002 47.2199996,108.9 C46.891998,108.571998 46.7279996,108.176002 46.7279996,107.712 L46.7279996,95.16 C46.7279996,94.6319974 46.9159977,94.1800019 47.2919996,93.804 C47.6680015,93.4279981 48.119997,93.24 48.6479996,93.24 L54.2159996,93.24 C55.0480038,93.24 55.7959963,93.3679987 56.4599996,93.624 C57.1240029,93.8800013 57.6879973,94.2399977 58.1519996,94.704 C58.6160019,95.1680023 58.9719984,95.7159968 59.2199996,96.348 C59.4680009,96.9800032 59.5919996,97.6639963 59.5919996,98.4 Z M53.7119996,96.24 L50.1359996,96.24 L50.1359996,100.56 L53.7119996,100.56 C54.4000031,100.56 54.9719973,100.368002 55.4279996,99.984 C55.8840019,99.5999981 56.1119996,99.0720034 56.1119996,98.4 C56.1119996,97.7279966 55.8840019,97.2000019 55.4279996,96.816 C54.9719973,96.4319981 54.4000031,96.24 53.7119996,96.24 Z M75.2319996,107.736 C75.2319996,108.152002 75.0720012,108.531998 74.7519996,108.876 C74.431998,109.220002 74.0400019,109.392 73.5759996,109.392 C73.3199983,109.392 73.0800007,109.340001 72.8559996,109.236 C72.6319985,109.131999 72.4400004,108.968001 72.2799996,108.744 L67.8159996,102.84 L66.5679996,104.328 L66.5679996,107.712 C66.5679996,108.176002 66.4000013,108.571998 66.0639996,108.9 C65.7279979,109.228002 65.320002,109.392 64.8399996,109.392 C64.3759973,109.392 63.9800013,109.228002 63.6519996,108.9 C63.323998,108.571998 63.1599996,108.176002 63.1599996,107.712 L63.1599996,94.776 C63.1599996,94.3119977 63.3279979,93.9160016 63.6639996,93.588 C64.0000013,93.2599984 64.4079972,93.096 64.8879996,93.096 C65.3520019,93.096 65.747998,93.2599984 66.0759996,93.588 C66.4040013,93.9160016 66.5679996,94.3119977 66.5679996,94.776 L66.5679996,100.392 L71.8479996,93.72 C71.9920003,93.527999 72.1759985,93.3840005 72.3999996,93.288 C72.6240007,93.1919995 72.8479985,93.144 73.0719996,93.144 C73.5040018,93.144 73.883998,93.2959985 74.2119996,93.6 C74.5400013,93.9040015 74.7039996,94.2719978 74.7039996,94.704 C74.7039996,95.0880019 74.5840008,95.4239986 74.3439996,95.712 L70.0719996,100.752 L74.8959996,106.776 C75.1200007,107.080002 75.2319996,107.399998 75.2319996,107.736 Z M91.5199996,104.4 C91.5199996,105.136004 91.3880009,105.815997 91.1239996,106.44 C90.8599983,107.064003 90.4640023,107.603998 89.9359996,108.06 C89.407997,108.516002 88.7400037,108.875999 87.9319996,109.14 C87.1239956,109.404001 86.184005,109.536 85.1119996,109.536 C84.5359967,109.536 83.9360027,109.488 83.3119996,109.392 C82.6879965,109.296 82.0920025,109.160001 81.5239996,108.984 C80.9559968,108.807999 80.4520018,108.592001 80.0119996,108.336 C79.5719974,108.079999 79.2400007,107.784002 79.0159996,107.448 C78.8399987,107.191999 78.7519996,106.920001 78.7519996,106.632 C78.7519996,106.167998 78.915998,105.788001 79.2439996,105.492 C79.5720013,105.195999 79.9439975,105.048 80.3599996,105.048 C80.5200004,105.048 80.6799988,105.068 80.8399996,105.108 C81.0000004,105.148 81.143999,105.216 81.2719996,105.312 C81.8160023,105.680002 82.4239963,105.979999 83.0959996,106.212 C83.768003,106.444001 84.4959957,106.56 85.2799996,106.56 C85.7440019,106.56 86.1519979,106.512 86.5039996,106.416 C86.8560014,106.32 87.1479985,106.188001 87.3799996,106.02 C87.6120008,105.851999 87.7839991,105.660001 87.8959996,105.444 C88.0080002,105.227999 88.0639996,105.008001 88.0639996,104.784 C88.0639996,104.431998 87.9320009,104.144001 87.6679996,103.92 C87.4039983,103.695999 87.0560018,103.508001 86.6239996,103.356 C86.1919975,103.203999 85.7000024,103.068001 85.1479996,102.948 C84.5959969,102.827999 84.0320025,102.688001 83.4559996,102.528 C82.8799967,102.367999 82.3160024,102.176001 81.7639996,101.952 C81.2119969,101.727999 80.7200018,101.440002 80.2879996,101.088 C79.8559975,100.735998 79.5080009,100.300003 79.2439996,99.78 C78.9799983,99.2599974 78.8479996,98.6240038 78.8479996,97.872 C78.8479996,97.1999966 78.9879982,96.5720029 79.2679996,95.988 C79.548001,95.4039971 79.947997,94.8880022 80.4679996,94.44 C80.9880022,93.9919978 81.6239959,93.6400013 82.3759996,93.384 C83.1280034,93.1279987 83.9759949,93 84.9199996,93 C85.3680019,93 85.8679969,93.0359996 86.4199996,93.108 C86.9720024,93.1800004 87.5039971,93.2919992 88.0159996,93.444 C88.5280022,93.5960008 88.9999975,93.7839989 89.4319996,94.008 C89.8640018,94.2320011 90.1919985,94.4879986 90.4159996,94.776 C90.6080006,95.0160012 90.7039996,95.2879985 90.7039996,95.592 C90.7039996,96.0560023 90.5240014,96.4279986 90.1639996,96.708 C89.8039978,96.9880014 89.4160017,97.128 88.9999996,97.128 C88.6959981,97.128 88.408001,97.0480008 88.1359996,96.888 C87.5759968,96.5679984 86.9960026,96.3360007 86.3959996,96.192 C85.7959966,96.0479993 85.2000026,95.976 84.6079996,95.976 C83.8719959,95.976 83.3080016,96.1239985 82.9159996,96.42 C82.5239977,96.7160015 82.3279996,97.1039976 82.3279996,97.584 C82.3279996,97.9040016 82.4599983,98.163999 82.7239996,98.364 C82.9880009,98.564001 83.3359975,98.7359993 83.7679996,98.88 C84.2000018,99.0240007 84.6919969,99.1559994 85.2439996,99.276 C85.7960024,99.3960006 86.3559968,99.5359992 86.9239996,99.696 C87.4920025,99.8560008 88.0519969,100.051999 88.6039996,100.284 C89.1560024,100.516001 89.6479975,100.811998 90.0799996,101.172 C90.5120018,101.532002 90.8599983,101.971997 91.1239996,102.492 C91.3880009,103.012003 91.5199996,103.647996 91.5199996,104.4 Z M107.568,94.68 C107.568,94.9840015 107.488,95.2639987 107.328,95.52 L102.696,102.696 L102.696,107.712 C102.696,108.176002 102.528001,108.571998 102.192,108.9 C101.855998,109.228002 101.448002,109.392 100.968,109.392 C100.503997,109.392 100.108001,109.228002 99.7799996,108.9 C99.451998,108.571998 99.2879996,108.176002 99.2879996,107.712 L99.2879996,102.696 L94.6079996,95.496 C94.4479988,95.2719989 94.3679996,95.0000016 94.3679996,94.68 C94.3679996,94.2959981 94.5199981,93.9400016 94.8239996,93.612 C95.1280011,93.2839984 95.5199972,93.12 95.9999996,93.12 C96.272001,93.12 96.5319984,93.1839994 96.7799996,93.312 C97.0280009,93.4400006 97.2319988,93.6319987 97.3919996,93.888 L100.992,99.672 L104.52,93.912 C104.68,93.6559987 104.883998,93.4600007 105.132,93.324 C105.380001,93.1879993 105.647998,93.12 105.936,93.12 C106.432002,93.12 106.827998,93.2799984 107.124,93.6 C107.420001,93.9200016 107.568,94.279998 107.568,94.68 Z" id="BARKSY" fill="#000000"></path>
            <path d="M116.528,96.504 C116.528,96.6426674 116.453334,96.712 116.304,96.712 C116.154666,96.712 116.08,96.6426674 116.08,96.504 L116.08,93.704 L114.976,96.392 C114.944,96.4773338 114.890667,96.52 114.816,96.52 C114.741333,96.52 114.688,96.4773338 114.656,96.392 L113.552,93.704 L113.552,96.504 C113.552,96.6426674 113.477334,96.712 113.328,96.712 C113.178666,96.712 113.104,96.6426674 113.104,96.504 L113.104,93.352 C113.104,93.2559995 113.138666,93.1733337 113.208,93.104 C113.277334,93.0346663 113.370666,93 113.488,93 C113.658668,93 113.776,93.0746659 113.84,93.224 L114.816,95.656 L115.776,93.24 C115.850667,93.0799992 115.973332,93 116.144,93 C116.261334,93 116.354666,93.0346663 116.424,93.104 C116.493334,93.1733337 116.528,93.2559995 116.528,93.352 L116.528,96.504 Z M112.624,93.304 C112.624,93.3573336 112.605334,93.4053331 112.568,93.448 C112.530666,93.4906669 112.485334,93.512 112.432,93.512 L111.536,93.512 L111.536,96.504 C111.536,96.6426674 111.461334,96.712 111.312,96.712 C111.162666,96.712 111.088,96.6426674 111.088,96.504 L111.088,93.512 L110.192,93.512 C110.138666,93.512 110.093334,93.4906669 110.056,93.448 C110.018666,93.4053331 110,93.3573336 110,93.304 C110,93.2506664 110.018666,93.2026669 110.056,93.16 C110.093334,93.1173331 110.138666,93.096 110.192,93.096 L112.432,93.096 C112.485334,93.096 112.530666,93.1173331 112.568,93.16 C112.605334,93.2026669 112.624,93.2506664 112.624,93.304 Z" id="™" fill="#000000"></path>
        </g>
    </g>
</svg>